<svg xmlns="http://www.w3.org/2000/svg" viewBox="0 0 512 512">
  <defs>
    <linearGradient id="bg" x1="0%" y1="0%" x2="100%" y2="100%">
      <stop offset="0%" style="stop-color:#22c55e"/>
      <stop offset="100%" style="stop-color:#16a34a"/>
    </linearGradient>
    <linearGradient id="leaf" x1="0%" y1="0%" x2="100%" y2="100%">
      <stop offset="0%" style="stop-color:#ffffff"/>
      <stop offset="100%" style="stop-color:#f0fdf4"/>
    </linearGradient>
  </defs>
  <!-- Background circle -->
  <circle cx="256" cy="256" r="256" fill="url(#bg)"/>
  <!-- Inner shadow -->
  <circle cx="256" cy="260" r="200" fill="rgba(0,0,0,0.1)"/>
  <circle cx="256" cy="256" r="200" fill="url(#bg)"/>
  <!-- Leaf icon -->
  <g transform="translate(128, 120) scale(1.8)">
    <path fill="url(#leaf)" d="M140 20c-20 0-80 40-80 100s40 80 80 80c0-40 0-80 20-100s60-20 60-20c0-40-40-60-80-60z"/>
    <path fill="none" stroke="#16a34a" stroke-width="4" stroke-linecap="round" d="M140 120c-20 20-40 60-40 80"/>
    <path fill="none" stroke="#16a34a" stroke-width="3" stroke-linecap="round" d="M120 140c10-10 25-15 35-12"/>
    <path fill="none" stroke="#16a34a" stroke-width="3" stroke-linecap="round" d="M130 160c8-8 20-12 28-10"/>
  </g>
  <!-- Scan lines -->
  <g stroke="#ffffff" stroke-width="3" stroke-opacity="0.3">
    <line x1="80" y1="100" x2="130" y2="100"/>
    <line x1="80" y1="100" x2="80" y2="150"/>
    <line x1="432" y1="100" x2="382" y2="100"/>
    <line x1="432" y1="100" x2="432" y2="150"/>
    <line x1="80" y1="412" x2="130" y2="412"/>
    <line x1="80" y1="412" x2="80" y2="362"/>
    <line x1="432" y1="412" x2="382" y2="412"/>
    <line x1="432" y1="412" x2="432" y2="362"/>
  </g>
</svg>
