<svg xmlns="http://www.w3.org/2000/svg" width="512" height="512" viewBox="0 0 512 512">
  <defs>
    <linearGradient id="bg" x1="0%" y1="0%" x2="100%" y2="100%">
      <stop offset="0%" style="stop-color:#22c55e"/>
      <stop offset="100%" style="stop-color:#16a34a"/>
    </linearGradient>
  </defs>
  <!-- Full background for maskable safe zone -->
  <rect width="512" height="512" fill="url(#bg)"/>
  <!-- Centered icon within safe zone (80% = 410px, centered) -->
  <g transform="translate(130, 110) scale(1.3)">
    <path fill="#ffffff" d="M140 20c-20 0-80 40-80 100s40 80 80 80c0-40 0-80 20-100s60-20 60-20c0-40-40-60-80-60z"/>
    <path fill="none" stroke="#16a34a" stroke-width="5" stroke-linecap="round" d="M140 120c-20 20-40 60-40 80"/>
    <path fill="none" stroke="#16a34a" stroke-width="4" stroke-linecap="round" d="M120 140c10-10 25-15 35-12"/>
    <path fill="none" stroke="#16a34a" stroke-width="4" stroke-linecap="round" d="M130 160c8-8 20-12 28-10"/>
  </g>
</svg>
